<svg width="40" height="40" viewBox="0 0 40 40" fill="none" xmlns="http://www.w3.org/2000/svg">
<rect width="40" height="40" rx="20" fill="url(#paint0_linear_350_2902)"/>
<path d="M19.8901 25.2478C18.724 25.2478 17.7797 24.3036 17.7797 23.143C17.7797 20.9355 19.0159 18.942 21.006 17.9405C21.8854 17.4979 22.4244 16.575 22.3791 15.5892C22.3245 14.4027 21.1943 13.2725 20.0078 13.2179C19.3174 13.1865 18.6624 13.43 18.1648 13.9052C17.8681 14.1886 17.6524 14.525 17.5237 14.9048C17.2315 15.7677 16.4341 16.3533 15.5394 16.3622V16.3622C15.5323 16.3623 15.5253 16.3623 15.5183 16.3623C14.8463 16.3623 14.2094 16.0396 13.811 15.4962C13.4079 14.9464 13.2974 14.2615 13.5078 13.617C13.8469 12.5782 14.4506 11.6239 15.2535 10.8569C16.5917 9.57895 18.3483 8.92249 20.2014 9.0073C21.8253 9.08194 23.3864 9.78968 24.5968 11.0001C25.8072 12.2106 26.5149 13.7715 26.5896 15.3956C26.7113 18.0397 25.2634 20.5166 22.9008 21.7057C22.3419 21.9869 21.9947 22.5378 21.9947 23.1431C21.9948 24.3036 21.0507 25.2478 19.8901 25.2478V25.2478ZM19.8855 11.8763C19.9467 11.8763 20.0079 11.8777 20.0695 11.8806C21.9593 11.9674 23.6295 13.6376 23.7164 15.5276C23.786 17.0402 22.9583 18.4567 21.6078 19.1363C20.0723 19.909 19.1185 21.4443 19.1185 23.1429C19.1185 23.5653 19.4621 23.9089 19.8845 23.9089C20.3124 23.9089 20.656 23.5653 20.656 23.1429C20.656 22.0287 21.2856 21.0197 22.299 20.5097C24.1905 19.5577 25.3497 17.5743 25.2523 15.457C25.193 14.1672 24.624 12.9205 23.6502 11.9468C22.6763 10.9729 21.4297 10.404 20.14 10.3446C18.6564 10.2773 17.2493 10.8021 16.1782 11.8251C15.5254 12.4485 15.0551 13.1912 14.7806 14.0325C14.7056 14.262 14.7458 14.507 14.8907 14.7047C15.0395 14.9076 15.2677 15.0235 15.5178 15.0235C15.5206 15.0235 15.5228 15.0221 15.526 15.0235C15.8525 15.0202 16.1458 14.7999 16.2557 14.4754C16.4515 13.897 16.792 13.3651 17.2401 12.9371C17.9605 12.2491 18.8939 11.8763 19.8855 11.8763V11.8763Z" fill="white"/>
<path d="M19.8873 31C18.7252 31 17.7798 30.0545 17.7798 28.8925C17.7798 27.7303 18.7252 26.7849 19.8873 26.7849C21.0495 26.7849 21.9949 27.7303 21.9949 28.8925C21.9949 30.0545 21.0495 31 19.8873 31V31ZM19.8873 28.1237C19.4634 28.1237 19.1186 28.4685 19.1186 28.8925C19.1186 29.3163 19.4634 29.6612 19.8873 29.6612C20.3113 29.6612 20.6561 29.3163 20.6561 28.8925C20.6561 28.4685 20.3113 28.1237 19.8873 28.1237V28.1237Z" fill="white"/>
<defs>
<linearGradient id="paint0_linear_350_2902" x1="20" y1="0" x2="20" y2="40" gradientUnits="userSpaceOnUse">
<stop stop-color="#00AF10"/>
<stop offset="1" stop-color="#5CCC66"/>
</linearGradient>
</defs>
</svg>
