<svg width="50" height="50" viewBox="0 0 50 50" fill="none" xmlns="http://www.w3.org/2000/svg">
<g clip-path="url(#clip0_350_3361)">
<path d="M24.8552 28.589C24.83 28.5925 24.8045 28.5925 24.7793 28.589C24.262 28.5848 23.7522 28.4642 23.2878 28.2362C22.8234 28.0082 22.4163 27.6786 22.0965 27.2718L10.3724 12.0994L6.07584 6.58214C5.51815 5.86072 5.26891 4.94778 5.38265 4.04306C5.49638 3.13834 5.96384 2.31549 6.68274 1.75456C7.40416 1.19687 8.3171 0.947629 9.22182 1.06137C10.1265 1.1751 10.9494 1.64256 11.5103 2.36146L14.6345 6.38904L24.8552 19.5132L38.131 2.39593C38.4065 2.03237 38.7514 1.72708 39.1457 1.49775C39.54 1.26841 39.976 1.1196 40.4282 1.05992C40.8804 1.00023 41.34 1.03088 41.7803 1.15006C42.2206 1.26924 42.6329 1.4746 42.9933 1.75424C43.3537 2.03388 43.655 2.38224 43.8798 2.77915C44.1046 3.17606 44.2484 3.61364 44.3029 4.06653C44.3574 4.51942 44.3216 4.97861 44.1973 5.41753C44.0731 5.85645 43.8631 6.26636 43.5793 6.62352L38.8897 12.6649L27.5793 27.2718C27.2553 27.684 26.8415 28.0169 26.3694 28.2452C25.8974 28.4734 25.3795 28.591 24.8552 28.589V28.589Z" fill="url(#paint0_linear_350_3361)"/>
<path d="M24.8551 49.617L24.8137 49.617C24.1887 49.6118 23.573 49.4652 23.0128 49.1881C22.4527 48.911 21.9625 48.5106 21.5792 48.017L5.53782 27.3273C4.97582 26.6031 4.67019 25.7129 4.66887 24.7963L4.66887 24.4238C4.74431 23.5972 5.06658 22.8124 5.59385 22.1714C6.12111 21.5303 6.82899 21.0626 7.6255 20.8291C8.42201 20.5956 9.27034 20.607 10.0603 20.8619C10.8502 21.1168 11.5453 21.6033 12.0551 22.2583L22.9861 36.348L24.8344 38.7273L37.5654 22.3135C37.8987 21.8842 38.3133 21.5248 38.7855 21.2557C39.2577 20.9867 39.7783 20.8132 40.3175 20.7453C40.8567 20.6775 41.404 20.7165 41.9282 20.8601C42.4523 21.0037 42.943 21.2492 43.3723 21.5825C43.8016 21.9158 44.161 22.3303 44.4301 22.8025C44.6992 23.2747 44.8726 23.7953 44.9405 24.3345C45.0084 24.8737 44.9694 25.421 44.8257 25.9452C44.6821 26.4694 44.4366 26.9601 44.1034 27.3894L28.1033 48.017C27.7186 48.5124 27.2262 48.9139 26.6635 49.1911C26.1008 49.4683 25.4824 49.6139 24.8551 49.617V49.617Z" fill="url(#paint1_linear_350_3361)"/>
<g opacity="0.4">
<g style="mix-blend-mode:overlay" opacity="0.4">
<path d="M22.0966 27.2718L10.3724 12.0994C11.6565 10.0855 13.0856 8.16773 14.6483 6.36145L24.8552 19.5132L38.131 2.39593C38.4065 2.03237 38.7514 1.72708 39.1457 1.49775C39.54 1.26842 39.976 1.1196 40.4282 1.05992C40.8804 1.00023 41.34 1.03088 41.7803 1.15006C42.2206 1.26924 42.6329 1.4746 42.9933 1.75424C43.3537 2.03388 43.655 2.38224 43.8798 2.77915C44.1046 3.17606 44.2484 3.61364 44.3029 4.06653C44.3574 4.51942 44.3216 4.97862 44.1973 5.41753C44.0731 5.85645 43.8631 6.26636 43.5793 6.62353L38.8897 12.6649L27.5793 27.2718C27.2574 27.6878 26.8445 28.0247 26.3724 28.2566C25.9002 28.4885 25.3812 28.6093 24.8552 28.6097C24.83 28.6132 24.8045 28.6132 24.7793 28.6097C24.2603 28.603 23.7495 28.4792 23.2849 28.2476C22.8204 28.0159 22.4142 27.6824 22.0966 27.2718Z" fill="white"/>
</g>
<g style="mix-blend-mode:overlay" opacity="0.4">
<path d="M24.8551 49.6162L24.8137 49.6162C24.1887 49.6111 23.573 49.4644 23.0128 49.1873C22.4526 48.9102 21.9625 48.5098 21.5792 48.0162L5.53782 27.3265C4.97582 26.6024 4.67019 25.7121 4.66887 24.7955L4.66887 24.4231C4.84818 23.8162 5.04816 23.2162 5.25506 22.6231C5.60552 22.0523 6.08929 21.5752 6.6648 21.2326C7.24032 20.89 7.89038 20.6923 8.55917 20.6564C9.22795 20.6204 9.89548 20.7473 10.5044 21.0262C11.1133 21.3051 11.6454 21.7277 12.0551 22.2576L22.9861 36.3472L24.8344 38.7265L37.5654 22.3127C38.2385 21.4457 39.2285 20.8817 40.3175 20.7446C41.4065 20.6075 42.5053 20.9086 43.3723 21.5817C44.2393 22.2548 44.8034 23.2447 44.9405 24.3337C45.0776 25.4228 44.7764 26.5216 44.1033 27.3886L28.1033 48.0162C27.7186 48.5116 27.2262 48.9132 26.6635 49.1903C26.1008 49.4675 25.4824 49.6131 24.8551 49.6162V49.6162Z" fill="white"/>
</g>
<g style="mix-blend-mode:overlay" opacity="0.4">
<path d="M22.0965 27.2718L10.3724 12.0994L6.07584 6.58215C5.51815 5.86073 5.26891 4.94779 5.38265 4.04306C5.49638 3.13834 5.96384 2.31549 6.68274 1.75456C7.40416 1.19687 8.3171 0.947629 9.22182 1.06137C10.1265 1.1751 10.9494 1.64256 11.5103 2.36146L14.6345 6.38904L24.8552 19.5132L38.131 2.39593C38.4065 2.03237 38.7514 1.72708 39.1457 1.49775C39.54 1.26842 39.976 1.1196 40.4282 1.05992C40.8804 1.00023 41.34 1.03088 41.7803 1.15006C42.2206 1.26924 42.6329 1.4746 42.9933 1.75424C43.3537 2.03388 43.655 2.38224 43.8798 2.77915C44.1046 3.17606 44.2484 3.61364 44.3029 4.06653C44.3574 4.51942 44.3216 4.97862 44.1973 5.41753C44.0731 5.85645 43.8631 6.26636 43.5793 6.62353L38.8897 12.6649L27.5793 27.2718C27.2574 27.6878 26.8445 28.0247 26.3723 28.2566C25.9002 28.4885 25.3812 28.6093 24.8552 28.6097C24.83 28.6132 24.8045 28.6132 24.7793 28.6097C24.2603 28.603 23.7494 28.4792 23.2849 28.2476C22.8204 28.0159 22.4142 27.6824 22.0965 27.2718Z" fill="white"/>
</g>
<g style="mix-blend-mode:overlay" opacity="0.4">
<path d="M24.8553 49.6171L24.8139 49.6171C24.189 49.612 23.5733 49.4653 23.0131 49.1882C22.4529 48.9111 21.9628 48.5107 21.5795 48.0171L5.53807 27.3274C4.97607 26.6033 4.67044 25.713 4.66911 24.7964L4.66911 24.424C4.74455 23.5974 5.06683 22.8126 5.59409 22.1715C6.12136 21.5304 6.82923 21.0628 7.62574 20.8292C8.42225 20.5957 9.27058 20.6071 10.0605 20.862C10.8505 21.1169 11.5455 21.6034 12.0553 22.2585L22.9864 36.3481L24.8346 38.7274L37.5657 22.3136C37.899 21.8843 38.3135 21.5249 38.7857 21.2558C39.2579 20.9868 39.7785 20.8133 40.3177 20.7455C40.8569 20.6776 41.4042 20.7166 41.9284 20.8602C42.4525 21.0038 42.9433 21.2493 43.3726 21.5826C43.8019 21.9159 44.1613 22.3304 44.4304 22.8026C44.6994 23.2748 44.8729 23.7954 44.9407 24.3346C45.0086 24.8739 44.9696 25.4212 44.826 25.9453C44.6824 26.4695 44.4369 26.9602 44.1036 27.3895L28.1036 48.0171C27.7189 48.5125 27.2265 48.9141 26.6637 49.1912C26.101 49.4684 25.4826 49.614 24.8553 49.6171V49.6171Z" fill="white"/>
</g>
<g style="mix-blend-mode:overlay" opacity="0.6">
<path d="M24.8552 28.589C24.83 28.5924 24.8045 28.5924 24.7793 28.589C27.3668 21.7295 32.3899 16.0631 38.8896 12.6718L27.5793 27.2718C27.2553 27.684 26.8415 28.0169 26.3694 28.2451C25.8974 28.4734 25.3795 28.591 24.8552 28.589V28.589Z" fill="white"/>
</g>
<g style="mix-blend-mode:overlay" opacity="0.6">
<path d="M24.8551 49.6169L24.8138 49.6169C23.5324 46.242 22.878 42.6614 22.8827 39.0514C22.8827 38.1411 22.9241 37.2376 23.0069 36.348L24.8551 38.7273L37.5862 22.3135C38.2593 21.4465 39.2492 20.8824 40.3382 20.7453C41.4272 20.6082 42.5261 20.9093 43.3931 21.5824C44.26 22.2555 44.8241 23.2455 44.9612 24.3345C45.0983 25.4235 44.7972 26.5224 44.1241 27.3894L28.1241 48.0169C27.7372 48.5152 27.2415 48.9183 26.675 49.1956C26.1084 49.473 25.4859 49.6171 24.8551 49.6169Z" fill="white"/>
</g>
</g>
<path d="M42.9242 4.51344C42.9291 4.97373 42.7757 5.42176 42.4897 5.7824L37.8 11.8238L26.4966 26.41C26.3141 26.6458 26.0828 26.8393 25.8185 26.9774C25.5543 27.1155 25.2633 27.1948 24.9655 27.21V27.21L24.8069 27.21C24.5009 27.2018 24.2005 27.1258 23.9274 26.9874C23.6543 26.8491 23.4153 26.6519 23.2276 26.41L11.5035 11.2376L7.2069 5.72033C7.04026 5.50569 6.91751 5.26032 6.8457 4.99824C6.77388 4.73617 6.75438 4.46252 6.78832 4.19291C6.82227 3.9233 6.90898 3.663 7.04351 3.4269C7.17805 3.1908 7.35777 2.98353 7.57242 2.81689C7.78706 2.65024 8.03243 2.5275 8.2945 2.45569C8.55658 2.38387 8.83022 2.36437 9.09983 2.39831C9.36944 2.43225 9.62972 2.51897 9.86582 2.6535C10.1019 2.78804 10.3092 2.96776 10.4759 3.1824L13.6 7.20999L23.7655 20.3755L24.8552 21.7548L25.9448 20.3755L39.2207 3.25826C39.3873 3.04358 39.5946 2.86385 39.8307 2.72929C40.0668 2.59474 40.3271 2.508 40.5967 2.47406C40.8663 2.44012 41.14 2.45962 41.4021 2.53145C41.6641 2.60329 41.9095 2.72606 42.1242 2.89274C42.3714 3.08475 42.5719 3.33039 42.7105 3.61112C42.849 3.89186 42.9221 4.20037 42.9242 4.51344M44.3035 4.51344C44.3027 3.79488 44.0774 3.09452 43.6592 2.51022C43.241 1.92592 42.6507 1.48687 41.9707 1.25441C41.2908 1.02195 40.5553 1.0077 39.8669 1.21364C39.1785 1.41959 38.5716 1.83543 38.131 2.40309L24.8552 19.5134L14.6552 6.36171L11.531 2.33412C11.0901 1.766 10.4826 1.34993 9.79355 1.14417C9.10447 0.938398 8.3683 0.953221 7.68807 1.18655C7.00783 1.41989 6.41757 1.86007 5.99988 2.44548C5.58219 3.03088 5.35798 3.73223 5.35863 4.45137C5.34958 5.21161 5.59203 5.95353 6.04828 6.56171L10.3448 12.079L22.069 27.2514C22.3844 27.6571 22.7865 27.9871 23.2459 28.2174C23.7053 28.4477 24.2104 28.5724 24.7241 28.5824C24.7493 28.5858 24.7748 28.5858 24.8 28.5824C25.3261 28.582 25.845 28.4612 26.3172 28.2293C26.7893 27.9974 27.2022 27.6605 27.5241 27.2445L38.8345 12.6583L43.5242 6.61688C44.0111 6.02218 44.2854 5.28184 44.3035 4.51344Z" fill="url(#paint2_linear_350_3361)"/>
<path d="M43.6207 24.8514C43.6183 25.4641 43.4121 26.0586 43.0345 26.5411L27.0345 47.1687C26.7768 47.5013 26.4465 47.7705 26.0687 47.9557C25.691 48.141 25.2759 48.2374 24.8552 48.2376V48.2376C24.4368 48.2354 24.0244 48.1379 23.6492 47.9527C23.2741 47.7675 22.9459 47.4994 22.6897 47.1687L6.6483 26.479C6.27082 25.9996 6.06665 25.4065 6.069 24.7963L6.069 24.5411C6.10443 24.119 6.23658 23.7108 6.4552 23.348C6.63656 23.0608 6.87055 22.8104 7.14486 22.61C7.72295 22.1622 8.45521 21.9622 9.18069 22.054C9.90618 22.1458 10.5655 22.522 11.0138 23.0997L21.9448 37.1963L23.7931 39.5756L24.8897 40.9549L25.9724 39.5756L38.6483 23.1342C39.0012 22.6795 39.4874 22.3466 40.0389 22.182C40.5905 22.0175 41.1797 22.0296 41.724 22.2166C42.2683 22.4036 42.7405 22.7562 43.0744 23.2249C43.4083 23.6937 43.5873 24.2552 43.5862 24.8307M44.9655 24.8307C44.9676 23.9663 44.6989 23.1229 44.1971 22.419C43.6953 21.715 42.9856 21.186 42.1678 20.906C41.3499 20.626 40.4649 20.6092 39.637 20.8579C38.8091 21.1067 38.0799 21.6084 37.5517 22.2928L24.8552 38.7273L23.0069 36.348L12.0759 22.2583C11.5661 21.6033 10.871 21.1168 10.0811 20.8619C9.29115 20.607 8.44282 20.5956 7.64631 20.8291C6.8498 21.0626 6.14193 21.5303 5.61466 22.1714C5.0874 22.8124 4.76512 23.5972 4.68969 24.4238L4.68969 24.7963C4.69101 25.7129 4.99664 26.6031 5.55864 27.3273L21.6 48.017C21.9833 48.5106 22.4735 48.911 23.0336 49.1881C23.5938 49.4652 24.2095 49.6118 24.8345 49.617L24.8552 49.617C25.486 49.6171 26.1085 49.473 26.675 49.1957C27.2416 48.9184 27.7373 48.5152 28.1241 48.017L44.1241 27.3894C44.6901 26.6643 44.9982 25.7712 45 24.8514L44.9655 24.8307Z" fill="url(#paint3_linear_350_3361)"/>
</g>
<defs>
<linearGradient id="paint0_linear_350_3361" x1="44.3276" y1="14.8109" x2="5.3557" y2="14.8109" gradientUnits="userSpaceOnUse">
<stop stop-color="#FEE144"/>
<stop offset="1" stop-color="#DBA007"/>
</linearGradient>
<linearGradient id="paint1_linear_350_3361" x1="44.9729" y1="35.1395" x2="4.66887" y2="35.1395" gradientUnits="userSpaceOnUse">
<stop stop-color="#FEE144"/>
<stop offset="1" stop-color="#DBA007"/>
</linearGradient>
<linearGradient id="paint2_linear_350_3361" x1="44.3035" y1="14.7925" x2="5.35838" y2="14.7925" gradientUnits="userSpaceOnUse">
<stop stop-color="#FEE144"/>
<stop offset="1" stop-color="#DBA007"/>
</linearGradient>
<linearGradient id="paint3_linear_350_3361" x1="45" y1="35.1395" x2="4.68969" y2="35.1395" gradientUnits="userSpaceOnUse">
<stop stop-color="#FEE144"/>
<stop offset="1" stop-color="#DBA007"/>
</linearGradient>
<clipPath id="clip0_350_3361">
<rect width="50" height="50" fill="white" transform="translate(50) rotate(90)"/>
</clipPath>
</defs>
</svg>
