<svg width="212" height="35" viewBox="0 0 212 35" fill="none" xmlns="http://www.w3.org/2000/svg">
<path fill-rule="evenodd" clip-rule="evenodd" d="M0.893555 9.87627L7.82425 2.77231H15.2747V8.23023C15.2747 8.23023 9.03712 14.3812 8.69058 14.7278C8.34405 15.0743 8.34405 15.5941 8.69058 15.9406L15.2747 22.5248V28.0693H8.34405V10.5693C8.34405 10.2228 7.99752 9.87627 7.65098 9.87627H0.893555ZM23.6782 2.77232H32.4282L20.4728 14.7278C20.1263 15.0743 20.1263 15.5941 20.4728 15.9406C20.8193 16.2872 32.4282 28.0694 32.4282 28.0694H23.7649C23.7649 28.0694 11.2896 15.5941 11.2896 15.4208C11.2896 15.2476 23.6782 2.77232 23.6782 2.77232Z" fill="url(#paint0_linear_350_3426)"/>
<path d="M65.071 28.3301C63.1332 28.3301 61.4652 27.9392 60.067 27.1574C58.677 26.3674 57.6059 25.2517 56.8537 23.8102C56.1015 22.3606 55.7253 20.6463 55.7253 18.6674C55.7253 16.7373 56.1015 15.0433 56.8537 13.5856C57.6059 12.1278 58.6648 10.9917 60.0302 10.1773C61.4039 9.36293 63.0146 8.95574 64.8625 8.95574C66.1053 8.95574 67.2623 9.15526 68.3334 9.55432C69.4127 9.94522 70.353 10.5357 71.1543 11.3256C71.9637 12.1156 72.5933 13.1091 73.043 14.3063C73.4927 15.4953 73.7176 16.8879 73.7176 18.4841V19.9134H57.8103V16.6884H68.7995C68.7995 15.9391 68.6359 15.2754 68.3089 14.6972C67.9818 14.119 67.528 13.667 66.9475 13.3412C66.3751 13.0073 65.7088 12.8404 64.9484 12.8404C64.1552 12.8404 63.4521 13.0236 62.8388 13.3901C62.2338 13.7484 61.7595 14.233 61.4161 14.8438C61.0727 15.4464 60.8969 16.1183 60.8888 16.8594V19.9256C60.8888 20.854 61.0605 21.6562 61.4039 22.3321C61.7555 23.0081 62.2501 23.5293 62.8879 23.8958C63.5257 24.2622 64.282 24.4455 65.1569 24.4455C65.7374 24.4455 66.2688 24.364 66.7513 24.2012C67.2337 24.0383 67.6466 23.794 67.99 23.4682C68.3334 23.1424 68.595 22.7434 68.7749 22.271L73.6072 22.5887C73.3619 23.7451 72.859 24.7549 72.0986 25.6182C71.3464 26.4733 70.3734 27.1411 69.1797 27.6216C67.9941 28.0939 66.6245 28.3301 65.071 28.3301Z" fill="url(#paint1_linear_350_3426)"/>
<path d="M94.1842 9.20005L87.5981 27.9636H81.7111L75.1249 9.20005H80.644L84.5565 22.6253H84.7527L88.6528 9.20005H94.1842Z" fill="url(#paint2_linear_350_3426)"/>
<path d="M104.836 28.3301C102.898 28.3301 101.23 27.9392 99.8321 27.1574C98.4421 26.3674 97.371 25.2517 96.6187 23.8102C95.8665 22.3606 95.4904 20.6463 95.4904 18.6674C95.4904 16.7373 95.8665 15.0433 96.6187 13.5856C97.371 12.1278 98.4298 10.9917 99.7953 10.1773C101.169 9.36293 102.78 8.95574 104.628 8.95574C105.87 8.95574 107.027 9.15526 108.098 9.55432C109.178 9.94522 110.118 10.5357 110.919 11.3256C111.729 12.1156 112.358 13.1091 112.808 14.3063C113.258 15.4953 113.483 16.8879 113.483 18.4841V19.9134H97.5754V16.6884H108.564C108.564 15.9391 108.401 15.2754 108.074 14.6972C107.747 14.119 107.293 13.667 106.713 13.3412C106.14 13.0073 105.474 12.8404 104.713 12.8404C103.92 12.8404 103.217 13.0236 102.604 13.3901C101.999 13.7484 101.525 14.233 101.181 14.8438C100.838 15.4464 100.662 16.1183 100.654 16.8594V19.9256C100.654 20.854 100.826 21.6562 101.169 22.3321C101.52 23.0081 102.015 23.5293 102.653 23.8958C103.291 24.2622 104.047 24.4455 104.922 24.4455C105.502 24.4455 106.034 24.364 106.516 24.2012C106.999 24.0383 107.412 23.794 107.755 23.4682C108.098 23.1424 108.36 22.7434 108.54 22.271L113.372 22.5887C113.127 23.7451 112.624 24.7549 111.864 25.6182C111.111 26.4733 110.138 27.1411 108.945 27.6216C107.759 28.0939 106.39 28.3301 104.836 28.3301Z" fill="url(#paint3_linear_350_3426)"/>
<path d="M116.892 27.9636V9.20005H121.957V12.4739H122.154C122.497 11.3093 123.074 10.4298 123.883 9.83528C124.692 9.23263 125.625 8.93131 126.679 8.93131C126.941 8.93131 127.223 8.94759 127.526 8.98017C127.828 9.01275 128.094 9.05754 128.323 9.11454V13.7321C128.078 13.6588 127.738 13.5937 127.305 13.5367C126.872 13.4797 126.475 13.4512 126.115 13.4512C125.347 13.4512 124.66 13.6181 124.055 13.952C123.458 14.2778 122.984 14.7338 122.632 15.3202C122.289 15.9066 122.117 16.5825 122.117 17.348V27.9636H116.892Z" fill="url(#paint4_linear_350_3426)"/>
<path d="M134.823 35C134.161 35 133.539 34.9471 132.959 34.8412C132.387 34.7435 131.912 34.6172 131.536 34.4625L132.714 30.5778C133.327 30.7651 133.879 30.8669 134.369 30.8832C134.868 30.8995 135.297 30.7855 135.657 30.5412C136.025 30.2969 136.323 29.8815 136.552 29.2952L136.859 28.5011L130.101 9.20005H135.596L139.496 22.9796H139.692L143.629 9.20005H149.16L141.838 29.9915C141.487 31.0013 141.009 31.8809 140.404 32.6301C139.807 33.3875 139.05 33.9698 138.135 34.377C137.219 34.7923 136.115 35 134.823 35Z" fill="url(#paint5_linear_350_3426)"/>
<path d="M158.169 28.269C156.738 28.269 155.442 27.9026 154.281 27.1696C153.128 26.4285 152.212 25.3413 151.534 23.908C150.863 22.4665 150.528 20.6993 150.528 18.6063C150.528 16.4563 150.875 14.6687 151.57 13.2435C152.265 11.8102 153.189 10.7393 154.342 10.0307C155.503 9.31407 156.775 8.95574 158.157 8.95574C159.211 8.95574 160.09 9.1349 160.793 9.49324C161.505 9.84343 162.077 10.2832 162.511 10.8126C162.952 11.3338 163.287 11.8468 163.516 12.3518H163.676V2.94553H168.888V27.9636H163.737V24.9585H163.516C163.271 25.4797 162.923 25.9969 162.474 26.51C162.032 27.0149 161.456 27.4343 160.744 27.7682C160.041 28.1021 159.183 28.269 158.169 28.269ZM159.825 24.1279C160.667 24.1279 161.378 23.8998 161.959 23.4438C162.547 22.9796 162.997 22.3321 163.308 21.5014C163.627 20.6708 163.786 19.6976 163.786 18.5818C163.786 17.4661 163.631 16.497 163.32 15.6745C163.009 14.8519 162.56 14.2167 161.971 13.7688C161.382 13.3209 160.667 13.0969 159.825 13.0969C158.966 13.0969 158.242 13.329 157.654 13.7932C157.065 14.2574 156.619 14.9008 156.317 15.7233C156.014 16.5459 155.863 17.4987 155.863 18.5818C155.863 19.6731 156.014 20.6382 156.317 21.477C156.628 22.3077 157.073 22.9592 157.654 23.4316C158.242 23.8958 158.966 24.1279 159.825 24.1279Z" fill="url(#paint6_linear_350_3426)"/>
<path d="M178.556 28.3179C177.354 28.3179 176.283 28.1102 175.342 27.6949C174.402 27.2714 173.658 26.6484 173.11 25.8259C172.571 24.9952 172.301 23.9609 172.301 22.723C172.301 21.6806 172.493 20.8051 172.877 20.0966C173.262 19.3881 173.785 18.818 174.447 18.3864C175.109 17.9548 175.862 17.629 176.704 17.4091C177.554 17.1892 178.445 17.0345 179.377 16.9449C180.473 16.8309 181.356 16.725 182.027 16.6273C182.697 16.5214 183.184 16.3667 183.486 16.1631C183.789 15.9595 183.94 15.6582 183.94 15.2591V15.1858C183.94 14.4122 183.695 13.8136 183.204 13.3901C182.722 12.9666 182.035 12.7549 181.144 12.7549C180.203 12.7549 179.455 12.9625 178.899 13.3779C178.343 13.7851 177.975 14.2981 177.795 14.9171L172.963 14.5262C173.208 13.386 173.691 12.4006 174.41 11.5699C175.13 10.7311 176.058 10.0877 177.194 9.63983C178.339 9.18377 179.664 8.95574 181.168 8.95574C182.215 8.95574 183.216 9.0779 184.173 9.32221C185.138 9.56653 185.992 9.94522 186.736 10.4583C187.489 10.9714 188.081 11.631 188.515 12.4373C188.948 13.2354 189.165 14.1923 189.165 15.308V27.9636H184.21V25.3617H184.063C183.76 25.948 183.355 26.4652 182.848 26.9131C182.341 27.3528 181.732 27.699 181.021 27.9514C180.31 28.1957 179.488 28.3179 178.556 28.3179ZM180.052 24.7264C180.821 24.7264 181.499 24.5758 182.088 24.2744C182.677 23.965 183.139 23.5496 183.474 23.0284C183.809 22.5072 183.977 21.9168 183.977 21.2571V19.2659C183.813 19.3718 183.588 19.4695 183.302 19.5591C183.024 19.6406 182.709 19.7179 182.358 19.7912C182.006 19.8564 181.655 19.9175 181.303 19.9745C180.951 20.0233 180.633 20.0681 180.346 20.1088C179.733 20.1984 179.198 20.3409 178.74 20.5364C178.282 20.7318 177.926 20.9965 177.673 21.3304C177.419 21.6562 177.292 22.0634 177.292 22.552C177.292 23.2605 177.55 23.8021 178.065 24.1767C178.588 24.5432 179.251 24.7264 180.052 24.7264Z" fill="url(#paint7_linear_350_3426)"/>
<path d="M195.769 35C195.107 35 194.485 34.9471 193.905 34.8412C193.333 34.7435 192.858 34.6172 192.482 34.4625L193.66 30.5778C194.273 30.7651 194.825 30.8669 195.315 30.8832C195.814 30.8995 196.243 30.7855 196.603 30.5412C196.971 30.2969 197.27 29.8815 197.498 29.2952L197.805 28.5011L191.047 9.20005H196.542L200.442 22.9796H200.638L204.575 9.20005H210.107L202.785 29.9915C202.433 31.0013 201.955 31.8809 201.35 32.6301C200.753 33.3875 199.996 33.9698 199.081 34.377C198.165 34.7923 197.061 35 195.769 35Z" fill="url(#paint8_linear_350_3426)"/>
<path d="M40.5152 30.8416V0H42.5323V30.8416H40.5152ZM45.8656 10.1801C45.7672 9.2083 45.3449 8.45333 44.5987 7.9152C43.8525 7.37708 42.8398 7.10802 41.5606 7.10802C40.6915 7.10802 39.9576 7.2285 39.359 7.46945C38.7604 7.70237 38.3012 8.02765 37.9814 8.44529C37.6698 8.86294 37.514 9.33681 37.514 9.8669C37.4976 10.3086 37.5919 10.6942 37.7969 11.0235C38.0101 11.3528 38.3012 11.6379 38.6702 11.8788C39.0392 12.1117 39.4656 12.3166 39.9494 12.4933C40.4332 12.6619 40.9497 12.8065 41.4991 12.927L43.7623 13.4571C44.8611 13.698 45.8697 14.0193 46.7881 14.4209C47.7065 14.8224 48.5019 15.3164 49.1742 15.9027C49.8466 16.489 50.3673 17.1797 50.7363 17.9749C51.1135 18.77 51.3062 19.6816 51.3144 20.7096C51.3062 22.2196 50.9126 23.5288 50.1336 24.6371C49.3628 25.7375 48.2477 26.5928 46.7881 27.2032C45.3367 27.8056 43.586 28.1068 41.536 28.1068C39.5025 28.1068 37.7313 27.8016 36.2225 27.1912C34.7219 26.5808 33.5493 25.6772 32.7048 24.4805C31.8684 23.2758 31.4297 21.7859 31.3887 20.0109H36.5423C36.5997 20.8381 36.8416 21.5289 37.268 22.0831C37.7026 22.6292 38.2807 23.0428 39.0023 23.3239C39.7321 23.597 40.5562 23.7336 41.4745 23.7336C42.3765 23.7336 43.1596 23.6051 43.8238 23.348C44.4962 23.091 45.0169 22.7336 45.3859 22.2758C45.7549 21.818 45.9394 21.2919 45.9394 20.6976C45.9394 20.1434 45.7713 19.6776 45.4351 19.3001C45.1071 18.9226 44.6233 18.6013 43.9837 18.3363C43.3523 18.0712 42.5774 17.8303 41.659 17.6134L38.9162 16.9388C36.7924 16.4328 35.1155 15.6417 33.8855 14.5654C32.6556 13.4892 32.0447 12.0395 32.0529 10.2163C32.0447 8.72239 32.4506 7.41724 33.2705 6.30084C34.0987 5.18444 35.2344 4.313 36.6776 3.68653C38.1208 3.06006 39.7608 2.74683 41.5975 2.74683C43.4671 2.74683 45.0989 3.06006 46.4929 3.68653C47.8951 4.313 48.9856 5.18444 49.7646 6.30084C50.5436 7.41724 50.9454 8.71034 50.97 10.1801H45.8656Z" fill="url(#paint9_linear_350_3426)"/>
<defs>
<linearGradient id="paint0_linear_350_3426" x1="16.6609" y1="2.77231" x2="16.6609" y2="28.0693" gradientUnits="userSpaceOnUse">
<stop stop-color="#FEE144"/>
<stop offset="1" stop-color="#DBA007"/>
</linearGradient>
<linearGradient id="paint1_linear_350_3426" x1="132.916" y1="2.94553" x2="132.916" y2="35" gradientUnits="userSpaceOnUse">
<stop stop-color="#FEE144"/>
<stop offset="1" stop-color="#DBA007"/>
</linearGradient>
<linearGradient id="paint2_linear_350_3426" x1="132.916" y1="2.94553" x2="132.916" y2="35" gradientUnits="userSpaceOnUse">
<stop stop-color="#FEE144"/>
<stop offset="1" stop-color="#DBA007"/>
</linearGradient>
<linearGradient id="paint3_linear_350_3426" x1="132.916" y1="2.94553" x2="132.916" y2="35" gradientUnits="userSpaceOnUse">
<stop stop-color="#FEE144"/>
<stop offset="1" stop-color="#DBA007"/>
</linearGradient>
<linearGradient id="paint4_linear_350_3426" x1="132.916" y1="2.94553" x2="132.916" y2="35" gradientUnits="userSpaceOnUse">
<stop stop-color="#FEE144"/>
<stop offset="1" stop-color="#DBA007"/>
</linearGradient>
<linearGradient id="paint5_linear_350_3426" x1="132.916" y1="2.94553" x2="132.916" y2="35" gradientUnits="userSpaceOnUse">
<stop stop-color="#FEE144"/>
<stop offset="1" stop-color="#DBA007"/>
</linearGradient>
<linearGradient id="paint6_linear_350_3426" x1="132.916" y1="2.94553" x2="132.916" y2="35" gradientUnits="userSpaceOnUse">
<stop stop-color="#FEE144"/>
<stop offset="1" stop-color="#DBA007"/>
</linearGradient>
<linearGradient id="paint7_linear_350_3426" x1="132.916" y1="2.94553" x2="132.916" y2="35" gradientUnits="userSpaceOnUse">
<stop stop-color="#FEE144"/>
<stop offset="1" stop-color="#DBA007"/>
</linearGradient>
<linearGradient id="paint8_linear_350_3426" x1="132.916" y1="2.94553" x2="132.916" y2="35" gradientUnits="userSpaceOnUse">
<stop stop-color="#FEE144"/>
<stop offset="1" stop-color="#DBA007"/>
</linearGradient>
<linearGradient id="paint9_linear_350_3426" x1="41.3515" y1="0" x2="41.3515" y2="30.8416" gradientUnits="userSpaceOnUse">
<stop stop-color="#FEE144"/>
<stop offset="1" stop-color="#DBA007"/>
</linearGradient>
</defs>
</svg>
