<svg width="90" height="90" viewBox="0 0 90 90" fill="none" xmlns="http://www.w3.org/2000/svg">
<rect width="90" height="90" rx="45" fill="url(#paint0_linear_350_2866)"/>
<path d="M65.0794 56.858C63.8123 55.164 62.0706 53.9526 60.0418 53.3539L55.0125 51.7858C55.0121 51.7857 55.0117 51.7855 55.0114 51.7854L51.4139 50.6638C51.0922 50.5632 50.7522 50.5756 50.4457 50.688C50.191 50.4611 50.0376 50.1324 50.0376 49.7826V49.5576L55.5933 48.113C57.4878 47.6204 58.811 45.9092 58.811 43.9516V41.2067C59.5942 40.8964 60.1498 40.132 60.1498 39.2397V35.6605C60.1498 34.7628 59.5992 34.0022 58.811 33.6945V32.9778C58.811 32.4255 58.7759 31.8696 58.7067 31.325C58.6556 30.9235 58.2884 30.6402 57.887 30.6903C57.4854 30.7413 57.2012 31.1083 57.2523 31.51C57.3137 31.9934 57.3448 32.4871 57.3448 32.9778V34.2805V34.3667C56.9526 34.2724 56.447 34.1182 55.9051 33.8709C55.8793 33.8592 55.8539 33.8472 55.8283 33.8353C54.7932 33.3491 53.6401 32.5199 52.892 31.1148C52.8808 31.0935 52.8695 31.0721 52.8585 31.0506C52.8305 30.9964 52.803 30.9415 52.7762 30.8856C52.7555 30.8422 52.7357 30.7982 52.7158 30.7541C52.6975 30.7134 52.6788 30.6732 52.6611 30.6317C52.6231 30.5418 52.5862 30.4509 52.5518 30.3582C52.4697 30.1377 52.2869 29.97 52.0602 29.9073C52.0034 29.8916 51.9457 29.8829 51.8881 29.8811C51.8773 29.8807 51.8664 29.8818 51.8556 29.882C51.8377 29.8821 51.8198 29.8819 51.8021 29.8834C51.6758 29.8943 51.5538 29.9389 51.4478 30.0124C51.434 30.022 51.4198 30.031 51.4066 30.0415C51.404 30.0436 51.3937 30.0518 51.3773 30.0646C51.3754 30.066 51.3741 30.067 51.3721 30.0686C51.3659 30.0734 51.3578 30.0796 51.3501 30.0856C51.3445 30.0899 51.3392 30.0941 51.3327 30.0989C51.3261 30.104 51.3182 30.1101 51.3108 30.1158C51.2999 30.1241 51.2887 30.1327 51.2761 30.1423C51.2704 30.1466 51.2642 30.1514 51.2581 30.156C51.2414 30.1686 51.2236 30.1821 51.2042 30.1967C51.2002 30.1997 51.196 30.2029 51.1919 30.206C49.8355 31.2235 42.2874 36.5773 35.0438 35.5555C35.031 35.5536 35.0182 35.5517 35.0054 35.5498C34.889 35.533 34.7726 35.5143 34.6564 35.4942C34.6232 35.4884 34.5901 35.4825 34.5569 35.4764C34.4565 35.4581 34.3563 35.4385 34.2561 35.4177C34.2239 35.411 34.1915 35.4045 34.1593 35.3975C34.0436 35.3725 33.9281 35.3456 33.8127 35.317C33.7658 35.3054 33.7193 35.2927 33.6726 35.2805C33.6011 35.2618 33.5299 35.2426 33.4586 35.2226C33.4022 35.2068 33.3459 35.1907 33.2898 35.174C33.2119 35.1507 33.1341 35.1263 33.0563 35.1014C32.9866 35.079 32.9172 35.056 32.8479 35.0324C32.7698 35.0057 32.6918 34.9784 32.6139 34.9499C32.5675 34.9329 32.5213 34.9158 32.4752 34.8982C32.3702 34.8582 32.2654 34.8171 32.1609 34.7738C32.1513 34.7698 32.1416 34.7661 32.132 34.7621V34.4007V32.9777C32.132 26.6302 37.2961 21.4661 43.6435 21.4661H45.8332C50.4364 21.4661 54.5882 24.1981 56.4102 28.4262C56.5704 28.7981 57.0018 28.9696 57.3736 28.8093C57.7453 28.649 57.9169 28.2178 57.7567 27.846C55.7028 23.0798 51.0225 20 45.8332 20H43.6436C36.4877 20 30.666 25.8217 30.666 32.9777V33.9945C30.1597 34.39 29.8505 35.0018 29.8505 35.6604V39.2396C29.8505 39.9162 30.1702 40.5191 30.666 40.9066V43.9229C30.666 45.9008 32.0063 47.6164 33.9254 48.0949L39.9627 49.6004V49.7826C39.9627 50.1325 39.8093 50.4613 39.5545 50.6881C39.248 50.5759 38.9081 50.5636 38.5866 50.6638L34.9889 51.7855C34.9885 51.7856 34.9882 51.7858 34.9878 51.7859L29.9587 53.354C27.1704 54.1767 24.9141 56.1813 23.7678 58.8546C23.6797 59.0601 23.5976 59.2715 23.5239 59.4829C23.3905 59.8652 23.5921 60.2832 23.9745 60.4166C24.3568 60.5497 24.7747 60.3483 24.9082 59.966C24.9709 59.7864 25.0406 59.6068 25.1154 59.4322C26.0896 57.16 28.0079 55.4566 30.3782 54.7587C30.3819 54.7576 30.3856 54.7565 30.3893 54.7553L34.97 53.3271L38.7987 57.6968C39.3557 58.3324 40.144 58.6779 40.9561 58.6779C41.2668 58.6778 41.5809 58.6273 41.8869 58.5231L45.0001 57.4626L47.7995 58.4162C48.1583 58.5384 48.5265 58.5976 48.8907 58.5976C49.8428 58.5975 50.767 58.1925 51.4199 57.4473L55.0302 53.3271L59.6109 54.7553C59.6146 54.7565 59.6183 54.7576 59.622 54.7587C61.347 55.2666 62.8283 56.2963 63.9053 57.7362C64.9825 59.1762 65.5518 60.8878 65.5518 62.6861V68.4378C65.5518 68.4907 65.5087 68.5338 65.4559 68.5338H61.496V61.8322C61.496 61.4273 61.1678 61.0991 60.7629 61.0991C60.358 61.0991 60.0298 61.4272 60.0298 61.8322V68.5338H29.9704V61.8322C29.9704 61.4273 29.6422 61.0991 29.2373 61.0991C28.8324 61.0991 28.5042 61.4272 28.5042 61.8322V68.5338H24.5443C24.4914 68.5338 24.4484 68.4907 24.4484 68.4378V63.1585C24.4484 62.7536 24.1202 62.4254 23.7153 62.4254C23.3104 62.4254 22.9822 62.7535 22.9822 63.1585V68.4378C22.9822 69.2991 23.683 70 24.5443 70H65.4559C66.3172 70 67.018 69.2992 67.018 68.4378V62.6861C67.018 60.5689 66.3476 58.5536 65.0794 56.858ZM55.2242 46.6939L51.7036 47.6093C51.7487 47.5767 51.7921 47.542 51.8366 47.5088C51.855 47.4952 51.8732 47.4812 51.8914 47.4674C52.0168 47.3729 52.14 47.2759 52.2611 47.1765C52.277 47.1635 52.2928 47.1505 52.3085 47.1375C52.4378 47.0301 52.5647 46.9203 52.689 46.8076C52.6949 46.8021 52.7011 46.7968 52.707 46.7914C52.9058 46.6105 53.0979 46.423 53.2832 46.2291C53.2971 46.2146 53.3107 46.1999 53.3243 46.1854C53.416 46.0884 53.5064 45.9902 53.5946 45.8902L54.4221 45.7483C55.7851 45.5145 56.8709 44.5856 57.3446 43.3615V43.9515H57.3446C57.3447 45.2416 56.4728 46.3693 55.2242 46.6939ZM56.3578 39.8607C56.3905 39.6193 56.4158 39.3755 56.4332 39.1295C56.435 39.1046 56.4363 39.0797 56.438 39.0549C56.4442 38.9588 56.4491 38.8625 56.4529 38.7659C56.4541 38.7347 56.4555 38.7036 56.4564 38.6725C56.4601 38.5534 56.4625 38.434 56.4625 38.314V35.6497C57.3176 35.9068 57.9405 35.9636 58.0181 35.9699C58.0185 35.9699 58.0195 35.97 58.0197 35.97C58.02 35.97 58.0203 35.97 58.0206 35.97C58.2241 35.986 58.4252 35.9162 58.5752 35.7776C58.5948 35.7594 58.6133 35.7402 58.6307 35.7202C58.6368 35.7132 58.6421 35.7056 58.648 35.6984C58.6587 35.685 58.6696 35.6716 58.6793 35.6575C58.6806 35.6557 58.6823 35.6539 58.6835 35.6521C58.6835 35.6547 58.6835 35.6575 58.6835 35.6603V39.2395C58.6835 39.5869 58.4091 39.8705 58.0656 39.887C58.0616 39.8871 58.0576 39.8866 58.0535 39.8868C58.042 39.8871 58.0306 39.8877 58.0178 39.8886H56.3542C56.3557 39.8794 56.3566 39.8701 56.3578 39.8607ZM55.1946 43.5506C55.2458 43.4514 55.2955 43.3513 55.3439 43.2504C55.3683 43.1994 55.3921 43.148 55.4158 43.0966C55.461 42.9989 55.505 42.9004 55.5474 42.8012C55.5693 42.7499 55.5904 42.6983 55.6115 42.6466C55.6484 42.5568 55.684 42.4664 55.7187 42.3754C55.7346 42.3334 55.7511 42.2917 55.7666 42.2496C55.8091 42.1337 55.849 42.0168 55.8878 41.8994C55.9023 41.8555 55.9167 41.8118 55.9307 41.7677C55.969 41.6468 56.0053 41.525 56.0397 41.4025C56.0442 41.3866 56.0494 41.371 56.0538 41.3551H56.1372V41.9756C56.1372 42.8525 55.6598 43.6274 54.9318 44.0348C54.9504 44.0026 54.9673 43.9694 54.9857 43.9371C55.0278 43.8624 55.0694 43.7873 55.1099 43.7116C55.1383 43.658 55.1668 43.6045 55.1946 43.5506ZM31.6999 39.831C31.6993 39.8307 31.6986 39.8306 31.6979 39.8303C31.4733 39.7281 31.3166 39.5021 31.3166 39.2397V36.0073C31.3381 36.0167 31.3598 36.0257 31.3813 36.0351C31.415 36.0498 31.4489 36.0643 31.4828 36.0786C31.5556 36.1097 31.6288 36.1401 31.7023 36.1698C31.7344 36.1827 31.7664 36.1958 31.7986 36.2085C31.8974 36.2476 31.9967 36.2856 32.0967 36.3223C32.1008 36.3238 32.1049 36.3254 32.109 36.3269C32.5735 36.4967 33.0506 36.6412 33.5376 36.7593V38.3141C33.5376 38.4341 33.54 38.5535 33.5437 38.6726C33.5447 38.7037 33.5461 38.7348 33.5472 38.766C33.551 38.8626 33.5559 38.9589 33.5621 39.055C33.5636 39.0799 33.565 39.1048 33.5669 39.1296C33.5842 39.3755 33.6095 39.6193 33.6423 39.8608C33.6435 39.8702 33.6443 39.8795 33.6457 39.8888H31.9656C31.8744 39.8887 31.7849 39.8693 31.6999 39.831ZM34.28 46.6722C33.0153 46.357 32.132 45.2263 32.132 43.9229V41.3549H33.9466C33.9509 41.3705 33.9561 41.3858 33.9604 41.4014C33.9956 41.527 34.0329 41.6516 34.0722 41.7754C34.086 41.819 34.1003 41.8623 34.1146 41.9056C34.1543 42.0256 34.1954 42.145 34.2389 42.2631C34.255 42.3066 34.2718 42.3497 34.2884 42.3929C34.3257 42.4906 34.3642 42.5877 34.4042 42.6841C34.4278 42.7414 34.452 42.7983 34.4765 42.8551C34.5162 42.9465 34.5569 43.0374 34.5988 43.1275C34.6214 43.1761 34.6436 43.2249 34.667 43.2732C34.7168 43.3766 34.7685 43.4789 34.8214 43.5804C34.8492 43.634 34.8773 43.6875 34.906 43.7407C34.9584 43.8377 35.012 43.934 35.0671 44.0293C35.0994 44.0853 35.1326 44.1408 35.1658 44.1961C35.207 44.2648 35.2491 44.333 35.2917 44.4006C35.3423 44.4812 35.3939 44.561 35.4466 44.6402C35.482 44.6935 35.5178 44.7465 35.5542 44.7992C35.6177 44.8916 35.6828 44.9829 35.749 45.0734C35.782 45.1184 35.8151 45.1634 35.8487 45.208C35.926 45.3103 36.0053 45.4111 36.0858 45.5108C36.1127 45.544 36.1391 45.5774 36.1664 45.6103C36.2209 45.6762 36.2761 45.7414 36.3319 45.806C36.3452 45.8214 36.3589 45.8364 36.3722 45.8517C36.4757 45.9701 36.5814 46.0864 36.6897 46.2004C36.7079 46.2196 36.7262 46.2384 36.7446 46.2575C36.8506 46.3676 36.9588 46.4757 37.0691 46.5817C37.0866 46.5985 37.1042 46.6153 37.1218 46.632C37.2367 46.741 37.354 46.8475 37.4735 46.9518C37.4876 46.964 37.5014 46.9764 37.5155 46.9885C37.7192 47.1645 37.9291 47.3337 38.1454 47.4956C38.1488 47.4982 38.1524 47.5006 38.1558 47.5033C38.2486 47.5725 38.341 47.6421 38.4359 47.7086L34.28 46.6722ZM35.6153 41.7578C35.6127 41.7504 35.6099 41.7432 35.6073 41.7359C35.5811 41.6644 35.5557 41.5925 35.5312 41.5204C35.5297 41.5157 35.5281 41.511 35.5265 41.5063C35.4536 41.2904 35.3882 41.0711 35.3299 40.8489C35.3258 40.8332 35.3214 40.8177 35.3174 40.8021C35.3037 40.7488 35.2909 40.6951 35.278 40.6413C35.2689 40.6035 35.2598 40.5657 35.2512 40.5276C35.2404 40.48 35.2302 40.4323 35.22 40.3844C35.2117 40.3452 35.2036 40.3059 35.1958 40.2664C35.1876 40.2251 35.1797 40.1838 35.1719 40.1423C35.163 40.0935 35.1543 40.0446 35.146 39.9955C35.1402 39.9615 35.1344 39.9273 35.129 39.8931C35.1199 39.8362 35.1115 39.779 35.1034 39.7219C35.0994 39.694 35.0954 39.6661 35.0916 39.638C35.0832 39.5747 35.0757 39.5114 35.0684 39.4479C35.0658 39.4245 35.0629 39.4012 35.0604 39.3778C35.0533 39.3105 35.0471 39.2431 35.0413 39.1757C35.0395 39.155 35.0374 39.1344 35.0357 39.1137C35.0302 39.0447 35.0258 38.9755 35.0218 38.9064C35.0206 38.8867 35.019 38.867 35.0179 38.8472C35.0142 38.7768 35.0117 38.7064 35.0094 38.636C35.0088 38.6172 35.0077 38.5987 35.0072 38.5799C35.0049 38.4912 35.0036 38.4025 35.0036 38.3137V37.0303C36.0938 37.1704 37.236 37.1864 38.4188 37.0806C38.4574 37.0772 38.4963 37.0729 38.5349 37.0693C38.6308 37.0601 38.7269 37.0503 38.8233 37.0395C38.9086 37.0301 38.994 37.0201 39.0797 37.0094C39.1038 37.0064 39.128 37.0031 39.1522 36.9998C41.1424 36.7444 43.236 36.1535 45.399 35.2253C48.2303 34.0103 50.4617 32.5402 51.5667 31.7505C52.4417 33.441 53.7682 34.4584 54.9921 35.069C54.994 35.1462 54.9961 35.2239 54.9961 35.2988V38.314C54.9961 38.4028 54.9948 38.4914 54.9925 38.5802C54.992 38.599 54.9909 38.6175 54.9903 38.6363C54.9881 38.7067 54.9856 38.7772 54.9818 38.8475C54.9807 38.8673 54.9791 38.887 54.9779 38.9067C54.9738 38.9758 54.9694 39.045 54.964 39.114C54.9623 39.1347 54.9603 39.1553 54.9584 39.176C54.9527 39.2434 54.9465 39.3108 54.9393 39.3781C54.9368 39.4015 54.9339 39.4247 54.9313 39.4482C54.924 39.5117 54.9165 39.575 54.9081 39.6383C54.9044 39.6663 54.9003 39.6943 54.8963 39.7222C54.8882 39.7793 54.8798 39.8365 54.8707 39.8934C54.8653 39.9276 54.8595 39.9618 54.8537 39.9958C54.8454 40.0449 54.8368 40.0938 54.8278 40.1426C54.82 40.1841 54.8121 40.2254 54.8039 40.2667C54.7961 40.3061 54.788 40.3455 54.7797 40.3847C54.7695 40.4326 54.7593 40.4802 54.7485 40.5278C54.7399 40.566 54.7307 40.6039 54.7216 40.6419C54.7088 40.6954 54.6961 40.7489 54.6824 40.802C54.6782 40.8184 54.6736 40.8346 54.6694 40.851C54.6114 41.0718 54.5463 41.2897 54.4738 41.5042C54.4719 41.5099 54.4701 41.5156 54.4682 41.5212C54.4439 41.5927 54.4187 41.6639 54.3929 41.7346C54.39 41.7427 54.3869 41.7509 54.384 41.759C54.0112 42.7713 53.4787 43.7069 52.8177 44.5358L51.1712 44.8182C51.0175 44.548 50.8071 44.3113 50.5458 44.1264C50.0768 43.7946 49.5065 43.6652 48.9405 43.7627L46.5507 44.1726C45.382 44.373 44.5943 45.4868 44.7947 46.6554C44.9198 47.3851 45.3998 47.9723 46.0392 48.2564C45.6974 48.2919 45.3506 48.3103 44.9996 48.3103C43.5474 48.3103 42.1666 47.9987 40.9203 47.4393C40.8927 47.4269 40.8651 47.4142 40.8376 47.4015C38.4313 46.2949 36.5364 44.2599 35.6153 41.7578ZM49.8631 46.2771C49.7575 46.4263 49.6003 46.5254 49.4201 46.5564L47.0299 46.9663C46.9912 46.9729 46.9519 46.9763 46.9129 46.9763C46.5796 46.9763 46.2967 46.7372 46.2401 46.4076C46.1764 46.0357 46.427 45.6814 46.7988 45.6175L49.1889 45.2077C49.228 45.201 49.2672 45.1976 49.3061 45.1976C49.4462 45.1976 49.5827 45.2408 49.6995 45.3233C49.8487 45.4288 49.948 45.5862 49.9788 45.7663C50.0098 45.9464 49.9687 46.1278 49.8631 46.2771ZM41.4141 57.1352C40.8723 57.3197 40.2786 57.1608 39.9014 56.7305L36.5011 52.8498L39.023 52.0634C39.0375 52.059 39.0533 52.0627 39.0644 52.0731L43.6149 56.3856L41.4141 57.1352ZM40.7064 51.6091C41.1611 51.121 41.4287 50.47 41.4287 49.7825V49.2087C41.4764 49.2244 41.5247 49.2379 41.5725 49.2529C41.5967 49.2605 41.621 49.2677 41.6451 49.2752C41.7902 49.3197 41.9361 49.3612 42.0828 49.3998C42.1092 49.4067 42.1354 49.4138 42.1619 49.4206C42.2436 49.4415 42.3255 49.4617 42.4076 49.4807C42.4289 49.4857 42.4503 49.4901 42.4717 49.4949C42.6129 49.5267 42.7546 49.5559 42.897 49.5824C42.9464 49.5916 42.9959 49.6005 43.0455 49.609C43.1144 49.6209 43.1834 49.6329 43.2526 49.6434C43.3568 49.6594 43.4616 49.6738 43.5667 49.687C43.6218 49.6938 43.6769 49.6999 43.7321 49.7059C43.821 49.7158 43.9101 49.7245 43.9996 49.7323C44.0372 49.7355 44.0746 49.7394 44.1123 49.7423C44.2378 49.752 44.364 49.7589 44.4904 49.7645C44.5261 49.7661 44.5618 49.7673 44.5975 49.7686C44.731 49.7732 44.8651 49.7764 44.9999 49.7764C45.1347 49.7764 45.2686 49.7732 45.4023 49.7686C45.4381 49.7673 45.4737 49.7661 45.5094 49.7645C45.6359 49.7589 45.7621 49.7519 45.8875 49.7423C45.9251 49.7395 45.9626 49.7355 46.0002 49.7323C46.0896 49.7245 46.1788 49.7158 46.2677 49.7059C46.3228 49.6999 46.378 49.6938 46.4331 49.687C46.5382 49.6738 46.643 49.6594 46.7472 49.6434C46.8164 49.6329 46.8853 49.6209 46.9543 49.609C47.0039 49.6005 47.0534 49.5916 47.1028 49.5824C47.2452 49.5559 47.387 49.5267 47.5281 49.4949C47.5494 49.4901 47.5709 49.4857 47.5922 49.4807C47.6743 49.4617 47.7562 49.4415 47.8379 49.4206C47.8644 49.4138 47.8906 49.4067 47.917 49.3998C48.0637 49.3612 48.2095 49.3196 48.3547 49.2752C48.3789 49.2677 48.4031 49.2605 48.4272 49.2529C48.4751 49.2379 48.5233 49.2245 48.5711 49.2087V49.7825C48.5711 50.4701 48.8387 51.1211 49.2934 51.6091L45 55.678L40.7064 51.6091ZM50.3172 56.4812C49.8072 57.0631 49.0044 57.2778 48.2723 57.0284L46.3852 56.3856L50.9357 52.0731C50.9467 52.0628 50.9625 52.0589 50.9772 52.0635L53.499 52.8499L50.3172 56.4812Z" fill="white"/>
<path d="M38.591 60.72H33.0686C32.3582 60.72 31.7803 61.2979 31.7803 62.0084V64.4544C31.7803 65.1647 32.3582 65.7426 33.0686 65.7426H38.591C39.3014 65.7426 39.8793 65.1648 39.8793 64.4544V62.0084C39.8793 61.298 39.3013 60.72 38.591 60.72ZM38.413 64.2764H33.2463V62.1862H38.413V64.2764V64.2764Z" fill="white"/>
<defs>
<linearGradient id="paint0_linear_350_2866" x1="45" y1="0" x2="45" y2="90" gradientUnits="userSpaceOnUse">
<stop stop-color="#00AF10"/>
<stop offset="1" stop-color="#5CCC66"/>
</linearGradient>
</defs>
</svg>
