<svg width="90" height="90" viewBox="0 0 90 90" fill="none" xmlns="http://www.w3.org/2000/svg">
<rect width="90" height="90" rx="45" fill="url(#paint0_linear_350_2875)"/>
<path d="M24.6875 59.0625C24.8947 59.0625 25.0934 58.9802 25.2399 58.8337C25.3864 58.6872 25.4688 58.4885 25.4688 58.2813V37.9688C25.4688 37.3472 25.7157 36.751 26.1552 36.3115C26.5948 35.8719 27.1909 35.625 27.8125 35.625H29.9219L28.0547 37.4031C27.9781 37.4761 27.9172 37.5639 27.8756 37.6611C27.8339 37.7583 27.8125 37.863 27.8125 37.9688V56.7188C27.8125 56.926 27.8948 57.1247 28.0413 57.2712C28.1878 57.4177 28.3865 57.5 28.5938 57.5H52.0312C52.2385 57.5 52.4372 57.4177 52.5837 57.2712C52.7302 57.1247 52.8125 56.926 52.8125 56.7188C52.8125 56.5116 52.7302 56.3128 52.5837 56.1663C52.4372 56.0198 52.2385 55.9375 52.0312 55.9375H30.7031L45 43.6852L59.2969 55.9375H55.1562C54.949 55.9375 54.7503 56.0198 54.6038 56.1663C54.4573 56.3128 54.375 56.5116 54.375 56.7188C54.375 56.926 54.4573 57.1247 54.6038 57.2712C54.7503 57.4177 54.949 57.5 55.1562 57.5H61.4062C61.6135 57.5 61.8122 57.4177 61.9587 57.2712C62.1052 57.1247 62.1875 56.926 62.1875 56.7188V37.9688C62.1875 37.863 62.1661 37.7583 62.1244 37.6611C62.0828 37.5639 62.0219 37.4761 61.9453 37.4031L60.0781 35.625H62.1875C62.8091 35.625 63.4052 35.8719 63.8448 36.3115C64.2843 36.751 64.5312 37.3472 64.5312 37.9688V45C64.5312 45.2072 64.6136 45.4059 64.7601 45.5524C64.9066 45.699 65.1053 45.7813 65.3125 45.7813C65.5197 45.7813 65.7184 45.699 65.8649 45.5524C66.0114 45.4059 66.0938 45.2072 66.0938 45V37.9688C66.0925 36.9331 65.6806 35.9403 64.9483 35.208C64.216 34.4757 63.2231 34.0638 62.1875 34.0625H59.0625V25.4688C59.0625 25.2616 58.9802 25.0629 58.8337 24.9163C58.6872 24.7698 58.4885 24.6875 58.2812 24.6875H48.5937L45.5383 21.7781C45.3931 21.6401 45.2004 21.5631 45 21.5631C44.7996 21.5631 44.6069 21.6401 44.4617 21.7781L41.4062 24.6875H37.9688C37.7615 24.6875 37.5628 24.7698 37.4163 24.9163C37.2698 25.0629 37.1875 25.2616 37.1875 25.4688C37.1875 25.676 37.2698 25.8747 37.4163 26.0212C37.5628 26.1677 37.7615 26.25 37.9688 26.25H57.5V40.6102L51.0156 46.782L45.507 42.061C45.3655 41.9399 45.1854 41.8734 44.9992 41.8734C44.813 41.8734 44.6329 41.9399 44.4914 42.061L38.9844 46.7844L32.5 40.6125V26.25H34.8438C35.051 26.25 35.2497 26.1677 35.3962 26.0212C35.5427 25.8747 35.625 25.676 35.625 25.4688C35.625 25.2616 35.5427 25.0629 35.3962 24.9163C35.2497 24.7698 35.051 24.6875 34.8438 24.6875H31.7188C31.5115 24.6875 31.3128 24.7698 31.1663 24.9163C31.0198 25.0629 30.9375 25.2616 30.9375 25.4688V34.0625H27.8125C26.7769 34.0638 25.784 34.4757 25.0517 35.208C24.3194 35.9403 23.9075 36.9331 23.9062 37.9688V58.2813C23.9062 58.4885 23.9886 58.6872 24.1351 58.8337C24.2816 58.9802 24.4803 59.0625 24.6875 59.0625ZM45 23.4227L46.3281 24.6875H43.6719L45 23.4227ZM59.0625 36.8156L60.2734 37.9688L59.0625 39.1219V36.8156ZM60.625 39.7914V55.0203L52.2094 47.8063L60.625 39.7914ZM29.375 55.0203V39.7914L37.7906 47.8063L29.375 55.0203ZM29.7266 37.9688L30.9375 36.8156V39.1219L29.7266 37.9688Z" fill="white"/>
<path d="M67.6562 60.625H66.0938V48.125C66.0938 47.9178 66.0114 47.7191 65.8649 47.5726C65.7184 47.4261 65.5197 47.3438 65.3125 47.3438C65.1053 47.3438 64.9066 47.4261 64.7601 47.5726C64.6136 47.7191 64.5312 47.9178 64.5312 48.125V60.625H49.6875C49.4803 60.625 49.2816 60.7073 49.1351 60.8538C48.9886 61.0003 48.9062 61.199 48.9062 61.4062V62.1875H41.0938V61.4062C41.0938 61.199 41.0114 61.0003 40.8649 60.8538C40.7184 60.7073 40.5197 60.625 40.3125 60.625H22.3438C22.1365 60.625 21.9378 60.7073 21.7913 60.8538C21.6448 61.0003 21.5625 61.199 21.5625 61.4062V64.5312C21.5637 65.5669 21.9757 66.5597 22.708 67.292C23.4403 68.0243 24.4331 68.4363 25.4688 68.4375H64.5312C65.5669 68.4363 66.5597 68.0243 67.292 67.292C68.0243 66.5597 68.4363 65.5669 68.4375 64.5312V61.4062C68.4375 61.199 68.3552 61.0003 68.2087 60.8538C68.0622 60.7073 67.8635 60.625 67.6562 60.625ZM66.875 64.5312C66.875 65.1529 66.6281 65.749 66.1885 66.1885C65.749 66.6281 65.1529 66.875 64.5312 66.875H25.4688C24.8471 66.875 24.251 66.6281 23.8115 66.1885C23.3719 65.749 23.125 65.1529 23.125 64.5312V62.1875H39.5312V62.9688C39.5312 63.176 39.6136 63.3747 39.7601 63.5212C39.9066 63.6677 40.1053 63.75 40.3125 63.75H49.6875C49.8947 63.75 50.0934 63.6677 50.2399 63.5212C50.3864 63.3747 50.4688 63.176 50.4688 62.9688V62.1875H66.875V64.5312Z" fill="white"/>
<path d="M60.625 65.3125C61.0565 65.3125 61.4062 64.9627 61.4062 64.5312C61.4062 64.0998 61.0565 63.75 60.625 63.75C60.1935 63.75 59.8438 64.0998 59.8438 64.5312C59.8438 64.9627 60.1935 65.3125 60.625 65.3125Z" fill="white"/>
<path d="M63.75 65.3125C64.1815 65.3125 64.5312 64.9627 64.5312 64.5312C64.5312 64.0998 64.1815 63.75 63.75 63.75C63.3185 63.75 62.9688 64.0998 62.9688 64.5312C62.9688 64.9627 63.3185 65.3125 63.75 65.3125Z" fill="white"/>
<path d="M26.25 65.3125C26.6815 65.3125 27.0312 64.9627 27.0312 64.5312C27.0312 64.0998 26.6815 63.75 26.25 63.75C25.8185 63.75 25.4688 64.0998 25.4688 64.5312C25.4688 64.9627 25.8185 65.3125 26.25 65.3125Z" fill="white"/>
<path d="M29.375 65.3125C29.8065 65.3125 30.1562 64.9627 30.1562 64.5312C30.1562 64.0998 29.8065 63.75 29.375 63.75C28.9435 63.75 28.5938 64.0998 28.5938 64.5312C28.5938 64.9627 28.9435 65.3125 29.375 65.3125Z" fill="white"/>
<path d="M48.9062 38.75C49.1135 38.75 49.3122 38.6677 49.4587 38.5212C49.6052 38.3747 49.6875 38.176 49.6875 37.9688V28.5938C49.6875 28.4487 49.6471 28.3064 49.5708 28.183C49.4945 28.0596 49.3854 27.9599 49.2556 27.895C49.1259 27.8301 48.9806 27.8026 48.8361 27.8157C48.6916 27.8287 48.5536 27.8817 48.4375 27.9688C46.5418 29.384 44.2407 30.151 41.875 30.1563H38.75C37.9212 30.1563 37.1263 30.4855 36.5403 31.0715C35.9542 31.6576 35.625 32.4524 35.625 33.2813C35.625 34.1101 35.9542 34.9049 36.5403 35.491C37.1263 36.077 37.9212 36.4063 38.75 36.4063H38.9656L39.35 39.0945C39.4372 39.7058 39.7637 40.2573 40.2576 40.6279C40.7515 40.9984 41.3724 41.1575 41.9836 41.0703C42.5948 40.9831 43.1464 40.6566 43.5169 40.1627C43.8875 39.6688 44.0466 39.048 43.9594 38.4367L43.6914 36.5617C45.4121 36.8533 47.0389 37.5498 48.4375 38.5938C48.5727 38.6952 48.7372 38.75 48.9062 38.75ZM37.1875 33.2813C37.1875 32.8668 37.3521 32.4694 37.6451 32.1764C37.9382 31.8834 38.3356 31.7188 38.75 31.7188H40.3125V34.8438H38.75C38.3356 34.8438 37.9382 34.6791 37.6451 34.3861C37.3521 34.0931 37.1875 33.6957 37.1875 33.2813ZM42.4125 38.6578C42.4279 38.7664 42.4199 38.8771 42.3888 38.9823C42.3578 39.0875 42.3045 39.1848 42.2325 39.2677C42.1606 39.3505 42.0717 39.4169 41.9719 39.4624C41.8721 39.5078 41.7636 39.5313 41.6539 39.5313C41.4699 39.5304 41.2923 39.4637 41.1533 39.3432C41.0142 39.2226 40.923 39.0562 40.8961 38.8742L40.5469 36.4063H41.875C41.9477 36.4063 42.0195 36.4141 42.0914 36.4148L42.4125 38.6578ZM48.125 36.5203C46.2233 35.4264 44.0688 34.8485 41.875 34.8438V31.7188C44.0688 31.714 46.2233 31.1361 48.125 30.0422V36.5203Z" fill="white"/>
<path d="M52.0312 34.0625H54.375C54.5822 34.0625 54.7809 33.9802 54.9274 33.8337C55.0739 33.6872 55.1562 33.4885 55.1562 33.2812C55.1562 33.074 55.0739 32.8753 54.9274 32.7288C54.7809 32.5823 54.5822 32.5 54.375 32.5H52.0312C51.824 32.5 51.6253 32.5823 51.4788 32.7288C51.3323 32.8753 51.25 33.074 51.25 33.2812C51.25 33.4885 51.3323 33.6872 51.4788 33.8337C51.6253 33.9802 51.824 34.0625 52.0312 34.0625Z" fill="white"/>
<path d="M52.0313 30.9375C52.1522 30.9375 52.2715 30.9094 52.3797 30.8554L53.9422 30.0742C54.0341 30.0283 54.116 29.9648 54.1832 29.8873C54.2505 29.8098 54.3019 29.7198 54.3344 29.6224C54.3669 29.5251 54.3799 29.4223 54.3727 29.3199C54.3654 29.2175 54.3381 29.1176 54.2922 29.0257C54.2464 28.9339 54.1829 28.852 54.1054 28.7847C54.0279 28.7175 53.9379 28.6661 53.8405 28.6336C53.6439 28.568 53.4292 28.5831 53.2438 28.6757L51.6813 29.457C51.5236 29.5356 51.3971 29.6652 51.3223 29.8248C51.2476 29.9843 51.229 30.1645 51.2695 30.336C51.31 30.5074 51.4074 30.6602 51.5457 30.7694C51.6839 30.8786 51.8551 30.9378 52.0313 30.9375Z" fill="white"/>
<path d="M52.3803 35.707C52.1949 35.6144 51.9802 35.5992 51.7836 35.6649C51.587 35.7305 51.4245 35.8715 51.3319 36.057C51.2393 36.2424 51.2241 36.4571 51.2897 36.6537C51.3554 36.8503 51.4964 37.0128 51.6819 37.1054L53.2444 37.8867C53.3362 37.9325 53.4361 37.9599 53.5385 37.9671C53.6409 37.9743 53.7437 37.9613 53.8411 37.9288C53.9384 37.8963 54.0284 37.845 54.1059 37.7777C54.1834 37.7104 54.2469 37.6285 54.2928 37.5367C54.3387 37.4449 54.366 37.3449 54.3732 37.2425C54.3805 37.1401 54.3674 37.0373 54.3349 36.94C54.3024 36.8426 54.2511 36.7526 54.1838 36.6751C54.1165 36.5976 54.0346 36.5341 53.9428 36.4882L52.3803 35.707Z" fill="white"/>
<defs>
<linearGradient id="paint0_linear_350_2875" x1="45" y1="0" x2="45" y2="90" gradientUnits="userSpaceOnUse">
<stop stop-color="#00AF10"/>
<stop offset="1" stop-color="#5CCC66"/>
</linearGradient>
</defs>
</svg>
