<svg width="90" height="90" viewBox="0 0 90 90" fill="none" xmlns="http://www.w3.org/2000/svg">
<rect width="90" height="90" rx="45" fill="url(#paint0_linear_350_2888)"/>
<path d="M36.6992 62.0965H22.6855C22.0124 62.0965 21.4648 61.549 21.4648 60.8758V29.1243C21.4648 28.4511 22.0124 27.9036 22.6855 27.9036H57.9883C58.3929 27.9036 58.7207 27.5756 58.7207 27.1711C58.7207 26.7667 58.3929 26.4387 57.9883 26.4387H22.6855C21.2048 26.4387 20 27.6434 20 29.1243V60.8758C20 62.3567 21.2048 63.5614 22.6855 63.5614H36.6992C37.1038 63.5614 37.4316 63.2334 37.4316 62.829C37.4316 62.4245 37.1038 62.0965 36.6992 62.0965Z" fill="white"/>
<path d="M67.3145 26.4387H61.4062C61.0017 26.4387 60.6738 26.7667 60.6738 27.1711C60.6738 27.5756 61.0017 27.9036 61.4062 27.9036H67.3145C67.9876 27.9036 68.5352 28.4511 68.5352 29.1243V60.8758C68.5352 61.549 67.9876 62.0965 67.3145 62.0965H40.1172C39.7126 62.0965 39.3848 62.4245 39.3848 62.829C39.3848 63.2334 39.7126 63.5614 40.1172 63.5614H67.3145C68.7952 63.5614 70 62.3567 70 60.8758V29.1243C70 27.6435 68.7952 26.4387 67.3145 26.4387V26.4387Z" fill="white"/>
<path d="M47.1541 50.0302V39.9702C47.1541 38.7823 46.1877 37.816 44.9999 37.816C43.8121 37.816 42.8457 38.7824 42.8457 39.9702V50.0302C42.8457 51.218 43.8121 52.1844 44.9999 52.1844C46.1877 52.1844 47.1541 51.218 47.1541 50.0302ZM44.3105 50.0302V39.9702C44.3105 39.5901 44.6197 39.2809 44.9999 39.2809C45.3801 39.2809 45.6893 39.5902 45.6893 39.9702V50.0302C45.6893 50.4103 45.3801 50.7196 44.9999 50.7196C44.6197 50.7196 44.3105 50.4103 44.3105 50.0302V50.0302Z" fill="white"/>
<path d="M38.4226 43.1222C38.295 43.506 38.5029 43.9206 38.8868 44.0481C39.2703 44.1755 39.6852 43.9679 39.8127 43.584L40.7815 40.6678C41.1558 39.5405 40.5434 38.3188 39.4164 37.9444C38.8699 37.7629 38.286 37.805 37.7714 38.0629C37.2573 38.3207 36.8742 38.7635 36.6928 39.3096L35.1974 43.8109L33.6191 39.2639C33.4304 38.7203 33.0413 38.2827 32.5234 38.0317C32.0053 37.7808 31.4208 37.7465 30.8776 37.9352C30.334 38.1239 29.8964 38.513 29.6455 39.0308C29.3946 39.5485 29.3602 40.1331 29.549 40.6767L32.9855 50.5769C32.989 50.5875 32.9927 50.598 32.9934 50.5997C33.3298 51.5476 34.2317 52.1844 35.2375 52.1844H35.2538C36.2668 52.1774 37.1663 51.5283 37.4932 50.566C37.4944 50.5625 37.4956 50.559 37.4967 50.5555L38.7347 46.8289C38.8624 46.445 38.6545 46.0305 38.2706 45.9029C37.8871 45.7755 37.4721 45.9832 37.3447 46.3671L36.1067 50.0936C36.106 50.0957 36.1054 50.0974 36.1051 50.0979C35.9797 50.4671 35.6336 50.7168 35.2487 50.7195H35.2375C34.8505 50.7195 34.5034 50.4745 34.3723 50.1052L30.9328 40.1963C30.8724 40.0224 30.8834 39.8352 30.9636 39.6695C31.0439 39.5039 31.1839 39.3794 31.3581 39.3189C31.5318 39.2585 31.7187 39.2694 31.8846 39.3498C32.0504 39.4302 32.175 39.5701 32.2353 39.7441L34.5208 46.3284C34.6231 46.6232 34.9009 46.8207 35.2127 46.8207H35.2175C35.5313 46.8186 35.8088 46.6169 35.9077 46.3191L38.0829 39.7714C38.141 39.5965 38.2636 39.4548 38.4281 39.3724C38.5925 39.2899 38.7793 39.2764 38.9545 39.3346C39.3151 39.4544 39.5111 39.8453 39.3914 40.206L38.4226 43.1222Z" fill="white"/>
<path d="M54.057 37.8161H51.2624C50.7055 37.8087 50.1494 38.0372 49.7383 38.4472C49.3258 38.8588 49.094 39.4155 49.1017 39.9758V43.3332C49.1017 43.7377 49.4296 44.0656 49.8342 44.0656C50.2388 44.0656 50.5666 43.7377 50.5666 43.3332V39.9702C50.5666 39.966 50.5666 39.9617 50.5665 39.9575C50.5636 39.7905 50.6388 39.6179 50.7728 39.4842C50.9029 39.3544 51.0693 39.2806 51.231 39.2806C51.2393 39.2807 51.2476 39.2809 51.2558 39.2808H54.057C56.0331 39.2808 57.6408 40.8637 57.6408 42.8092C57.6408 44.7547 56.0331 46.3374 54.057 46.3374C53.7341 46.3374 53.1934 46.3395 52.6741 46.3421C52.271 46.344 51.9452 46.6714 51.9452 47.0745V50.0302C51.9452 50.4102 51.636 50.7195 51.2558 50.7195C50.8757 50.7195 50.5665 50.4102 50.5665 50.0302V46.7512C50.5665 46.3467 50.2387 46.0187 49.8341 46.0187C49.4295 46.0187 49.1017 46.3467 49.1017 46.7512V50.0302C49.1017 51.2179 50.0681 52.1844 51.2558 52.1844C52.4436 52.1844 53.41 51.2179 53.41 50.0302V47.8038C53.6622 47.8029 53.8891 47.8022 54.057 47.8022C56.8409 47.8022 59.1057 45.5623 59.1057 42.8092C59.1057 40.056 56.8409 37.8161 54.057 37.8161V37.8161Z" fill="white"/>
<path d="M52.6892 44.9635H52.6928C53.2034 44.961 53.7325 44.9589 54.0568 44.9589C55.2522 44.9589 56.262 43.9745 56.262 42.8093C56.262 41.644 55.2522 40.6597 54.0568 40.6597H52.6816C52.4871 40.6597 52.3005 40.7371 52.163 40.8749C52.0257 41.0127 51.9487 41.1994 51.9492 41.3939C51.9507 41.9526 51.952 42.5269 51.952 42.8093C51.952 43.1396 51.9541 43.6987 51.9568 44.2348C51.9589 44.638 52.2863 44.9635 52.6892 44.9635V44.9635ZM54.0568 42.1245C54.4512 42.1245 54.7972 42.4445 54.7972 42.8093C54.7972 43.174 54.4512 43.494 54.0568 43.494C53.8886 43.494 53.6655 43.4946 53.4185 43.4955C53.4175 43.2271 53.4168 42.9854 53.4168 42.8093C53.4168 42.6528 53.4164 42.4073 53.4157 42.1245H54.0568Z" fill="white"/>
<path d="M49.651 35.6708L50.4096 31.2267C50.4548 30.9622 50.3516 30.6942 50.1409 30.5281C49.93 30.362 49.6453 30.3245 49.3988 30.4304L47.0075 31.4563L45.5801 29.5745C45.4417 29.392 45.2257 29.2848 44.9965 29.2848C44.7674 29.2848 44.5514 29.392 44.413 29.5745L42.9863 31.4554L40.6026 30.4276C40.3563 30.3215 40.0715 30.3583 39.8603 30.524C39.6493 30.6898 39.5457 30.9575 39.5903 31.2222L40.3418 35.6698C40.4013 36.0222 40.7065 36.2801 41.064 36.2801H48.929C49.286 36.2801 49.591 36.0227 49.651 35.6708V35.6708ZM48.311 34.8153H41.6831L41.259 32.3059L42.9331 33.0278C43.2426 33.1612 43.6029 33.0662 43.8066 32.7979L44.9965 31.2292L46.1865 32.7979C46.3898 33.0658 46.7493 33.1609 47.0589 33.0283L48.7391 32.3074L48.311 34.8153Z" fill="white"/>
<path d="M50.127 57.2065C50.127 57.611 50.4548 57.939 50.8594 57.939H63.6523C64.0569 57.939 64.3848 57.611 64.3848 57.2065C64.3848 56.8021 64.0569 56.4741 63.6523 56.4741H50.8594C50.4548 56.4741 50.127 56.8021 50.127 57.2065Z" fill="white"/>
<path d="M39.873 57.2065C39.873 56.8021 39.5452 56.4741 39.1406 56.4741H26.3477C25.9431 56.4741 25.6152 56.8021 25.6152 57.2065C25.6152 57.611 25.9431 57.939 26.3477 57.939H39.1406C39.5452 57.939 39.873 57.611 39.873 57.2065Z" fill="white"/>
<path d="M48.6681 56.313C48.582 56.0479 48.3528 55.8546 48.0768 55.8146L46.4047 55.5716L45.6569 54.0564C45.5335 53.8064 45.2789 53.6481 45.0001 53.6481C44.7213 53.6481 44.4667 53.8064 44.3432 54.0564L43.5955 55.5716L41.9233 55.8146C41.6474 55.8546 41.4181 56.0479 41.332 56.313C41.2459 56.5781 41.3177 56.8692 41.5173 57.0638L42.7273 58.2433L42.4417 59.9087C42.3946 60.1834 42.5076 60.4612 42.7331 60.625C42.9586 60.7888 43.2574 60.8105 43.5044 60.6808L45.0001 59.8945L46.4956 60.6808C46.6028 60.7371 46.7198 60.7649 46.8363 60.7649C46.9882 60.7649 47.1393 60.7177 47.2669 60.625C47.4924 60.4612 47.6054 60.1834 47.5583 59.9087L47.2726 58.2433L48.4827 57.0638C48.6824 56.8693 48.7542 56.5781 48.6681 56.313V56.313ZM45.9746 57.4631C45.8019 57.6314 45.7232 57.8738 45.7639 58.1114L45.8637 58.6936L45.3409 58.4187C45.2341 58.3626 45.1172 58.3346 45.0001 58.3346C44.883 58.3346 44.766 58.3626 44.6592 58.4187L44.1364 58.6936L44.2362 58.1114C44.2769 57.8738 44.1981 57.6313 44.0256 57.4631L43.6025 57.0508L44.1871 56.9658C44.4257 56.9312 44.6319 56.7814 44.7385 56.5652L45 56.0355L45.2614 56.5652C45.3681 56.7813 45.5743 56.9312 45.8129 56.9658L46.3974 57.0508L45.9746 57.4631Z" fill="white"/>
<defs>
<linearGradient id="paint0_linear_350_2888" x1="45" y1="0" x2="45" y2="90" gradientUnits="userSpaceOnUse">
<stop stop-color="#00AF10"/>
<stop offset="1" stop-color="#5CCC66"/>
</linearGradient>
</defs>
</svg>
