<svg width="90" height="90" viewBox="0 0 90 90" fill="none" xmlns="http://www.w3.org/2000/svg">
<rect width="90" height="90" rx="45" fill="url(#paint0_linear_350_2855)"/>
<g clip-path="url(#clip0_350_2855)">
<path d="M66.0683 45.38C65.7909 45.0854 65.3273 45.0718 65.0329 45.349C64.7385 45.6264 64.7246 46.0899 65.0021 46.3844C67.2804 48.803 68.5352 51.9659 68.5352 55.2903C68.5352 62.4543 62.7068 68.2825 55.543 68.2825C48.3796 68.2825 42.5518 62.4543 42.5518 55.2903C42.5518 48.1269 48.3796 42.2991 55.543 42.2991C58.1878 42.2991 60.7321 43.0889 62.9009 44.5829C63.234 44.8123 63.6901 44.7284 63.9195 44.3953C64.1491 44.0622 64.065 43.6062 63.7319 43.3767C61.3177 41.7135 58.4859 40.8343 55.5431 40.8343C54.3508 40.8343 53.1922 40.9804 52.0831 41.2538C51.5464 40.6922 50.8025 40.3687 50.0079 40.3687H49.7202C49.9557 39.952 50.0908 39.4713 50.0908 38.9595V36.2642C50.0908 34.6794 48.8016 33.3901 47.2168 33.3901H44.1011L38.2875 23.3214C37.604 22.1383 36.3807 21.4321 35.0146 21.4321C35.0144 21.4321 35.014 21.4321 35.0138 21.4321C33.6485 21.4324 32.426 22.1384 31.7437 23.3205L25.9292 33.3901H24.0518C22.467 33.3901 21.1777 34.6794 21.1777 36.2642V38.9595C21.1777 40.5442 22.467 41.8335 24.0518 41.8335H24.3394C24.1039 42.2502 23.9687 42.7309 23.9687 43.2427V45.938C23.9687 46.4498 24.1039 46.9305 24.3394 47.3472H22.874C21.2893 47.3472 20 48.636 20 50.2202V52.9155C20 54.3219 21.0155 55.4946 22.3517 55.7411C22.0988 56.1688 21.9531 56.667 21.9531 57.1988V59.8941C21.9531 60.4726 22.1255 61.0112 22.4207 61.4626C21.2972 61.8534 20.4883 62.9224 20.4883 64.1773V66.8727C20.4883 68.4574 21.7775 69.7467 23.3623 69.7467H46.5273C47.6152 69.7467 48.5819 69.1305 49.0683 68.2136C51.0172 69.1941 53.2166 69.7474 55.543 69.7474C63.5146 69.7474 70 63.262 70 55.2903C70 51.591 68.6037 48.0715 66.0683 45.38V45.38ZM23.418 59.8941V57.1988C23.418 56.4218 24.0501 55.7896 24.8271 55.7896H41.0965C41.1634 57.7509 41.6225 59.6142 42.3981 61.3033H24.8271C24.0501 61.3033 23.418 60.6712 23.418 59.8941V59.8941ZM50.2196 41.8501C47.4472 42.952 45.0942 44.8885 43.471 47.3473H40.0068V41.8336H47.2168H50.0078C50.0795 41.8336 50.1501 41.8395 50.2196 41.8501V41.8501ZM48.626 36.2643V38.9596C48.626 39.7366 47.9938 40.3687 47.2168 40.3687H40.0068V39.7093H41.2051C42.5712 39.7093 43.7944 39.0028 44.4774 37.8194C45.0094 36.8979 45.1249 35.8377 44.8281 34.855H47.2168C47.9938 34.8551 48.626 35.4872 48.626 36.2643ZM22.6426 38.9596V36.2643C22.6426 35.4872 23.2747 34.8551 24.0518 34.8551H25.2016C25.0175 35.4687 24.992 36.1193 25.1342 36.7502C25.223 37.1448 25.6151 37.3927 26.0097 37.3037C26.4043 37.2147 26.6521 36.8228 26.5632 36.4282C26.474 36.0324 26.4465 35.4241 26.8218 34.7738L33.0123 24.053C33.43 23.3294 34.1783 22.8973 35.0142 22.8971H35.0146C35.8512 22.8971 36.6006 23.3296 37.019 24.0541L43.2086 34.7739C43.6269 35.4979 43.627 36.3628 43.2088 37.0872C42.7905 37.8118 42.0415 38.2444 41.2051 38.2444H39.2744C38.8699 38.2444 38.542 38.5724 38.542 38.9769V50.2747C38.542 50.9278 38.0106 51.4593 37.3574 51.4593H32.6738C32.0207 51.4593 31.4893 50.9279 31.4893 50.2747V38.9769C31.4893 38.5724 31.1613 38.2444 30.7568 38.2444H28.8252C28.547 38.2444 28.2786 38.1981 28.0276 38.1069C27.6473 37.9686 27.2272 38.1647 27.0891 38.5449C26.9508 38.9251 27.1469 39.3453 27.5271 39.4835C27.939 39.6333 28.3757 39.7093 28.8252 39.7093H30.0244V40.3687H26.8428H24.0518C23.2747 40.3687 22.6426 39.7366 22.6426 38.9596V38.9596ZM25.4336 45.9381V43.2428C25.4336 42.4657 26.0657 41.8336 26.8428 41.8336H30.0244V47.3473H26.8428C26.0657 47.3473 25.4336 46.7151 25.4336 45.9381V45.9381ZM21.4648 52.9156V50.2203C21.4648 49.4438 22.097 48.8121 22.874 48.8121H26.8428H30.0244V50.2747C30.0244 51.7355 31.2129 52.9241 32.6738 52.9241H37.3574C38.8183 52.9241 40.0068 51.7356 40.0068 50.2747V48.8121H42.6224C41.7776 50.4901 41.2506 52.354 41.1199 54.3248H24.8271H22.874C22.097 54.3248 21.4648 53.6927 21.4648 52.9156V52.9156ZM46.5273 68.2818H23.3623C22.5853 68.2818 21.9531 67.6497 21.9531 66.8727V64.1773C21.9531 63.4003 22.5853 62.7682 23.3623 62.7682H24.8271H43.175C44.3313 64.6738 45.9155 66.2921 47.7931 67.4893C47.5626 67.9609 47.0771 68.2818 46.5273 68.2818V68.2818Z" fill="white"/>
<path d="M56.9892 54.5303C56.73 54.4548 56.4645 54.3755 56.1999 54.2927V51.0473C56.9862 51.1635 57.456 51.4946 57.4914 51.5204C57.8133 51.7609 58.2695 51.6972 58.513 51.3766C58.7576 51.0545 58.6948 50.595 58.3728 50.3504C58.3256 50.3145 57.5162 49.7148 56.1999 49.5733V48.9406C56.1999 48.5361 55.8721 48.2082 55.4675 48.2082C55.0629 48.2082 54.7351 48.5361 54.7351 48.9406V49.6203C54.5938 49.6441 54.4494 49.6739 54.3019 49.7105C53.0671 50.0169 52.1452 50.959 51.9532 52.1106C51.7913 53.0821 52.1876 54.0065 52.9875 54.5232C53.4274 54.8074 53.9776 55.0681 54.7351 55.3445V59.4554C53.9747 59.4233 53.4721 59.2953 52.6449 58.8496C52.2887 58.6577 51.8444 58.7909 51.6527 59.1471C51.4608 59.5031 51.594 59.9474 51.9501 60.1392C53.0436 60.7283 53.7515 60.8864 54.7352 60.9211V61.6403C54.7352 62.0448 55.063 62.3727 55.4676 62.3727C55.8722 62.3727 56.2 62.0448 56.2 61.6403V60.8735C58.1295 60.5853 59.3053 59.2154 59.4942 57.8646C59.7067 56.3439 58.7234 55.0351 56.9892 54.5303V54.5303ZM53.7823 53.2927C53.3414 53.0079 53.3668 52.5395 53.3982 52.3514C53.4744 51.8937 53.8445 51.3331 54.6545 51.1322C54.6816 51.1255 54.7082 51.1199 54.735 51.1138V53.7729C54.3718 53.6219 54.0444 53.462 53.7823 53.2927ZM58.0433 57.6618C57.9403 58.3976 57.2875 59.1425 56.1998 59.3832V55.8244C56.3229 55.8613 56.4486 55.8987 56.5796 55.9368C57.6207 56.2398 58.1541 56.8685 58.0433 57.6618Z" fill="white"/>
<path d="M55.5436 45.2907C50.0297 45.2907 45.5439 49.7766 45.5439 55.2904C45.5439 60.8043 50.0297 65.29 55.5436 65.29C61.0574 65.29 65.5432 60.8042 65.5432 55.2903C65.5432 49.7765 61.0574 45.2907 55.5436 45.2907ZM55.5436 63.8252C50.8375 63.8252 47.0088 59.9965 47.0088 55.2903C47.0088 50.5842 50.8375 46.7555 55.5436 46.7555C60.2496 46.7555 64.0783 50.5842 64.0783 55.2903C64.0783 59.9965 60.2496 63.8252 55.5436 63.8252Z" fill="white"/>
<path d="M55.6937 36.0823L55.7497 36.2913C55.7498 36.2913 55.7498 36.2914 55.7498 36.2914C56.009 37.2586 56.8927 37.9103 57.8619 37.9103C57.9998 37.9103 58.1395 37.8971 58.2793 37.8697L60.5836 37.4186C61.1755 37.3028 61.698 36.9428 62.0173 36.4312C62.3365 35.9196 62.4301 35.292 62.2739 34.7096L62.1348 34.19C61.9786 33.6074 61.5838 33.1108 61.0515 32.8274C60.5191 32.5439 59.8868 32.4936 59.3163 32.6891L57.0953 33.4505C56.0134 33.8216 55.3977 34.9776 55.6937 36.0823V36.0823ZM57.5705 34.8364L59.7915 34.0749C59.982 34.0095 60.1851 34.0257 60.3631 34.1204C60.541 34.2152 60.6678 34.3746 60.7199 34.5693L60.8591 35.0889C60.9112 35.2835 60.8812 35.4849 60.7745 35.656C60.6678 35.8271 60.5001 35.9425 60.3023 35.9813L57.998 36.4324C57.627 36.5047 57.2623 36.2764 57.1648 35.9125L57.1088 35.7033C57.0112 35.3393 57.214 34.9585 57.5705 34.8364V34.8364Z" fill="white"/>
<path d="M52.3916 30.3623C52.815 30.7858 53.3754 30.9997 53.9371 30.9997C54.4483 30.9997 54.9605 30.8224 55.3714 30.4644L57.1414 28.9216C57.596 28.5254 57.8685 27.9525 57.8893 27.3497C57.91 26.747 57.6771 26.1568 57.2508 25.7304L56.8704 25.35C56.444 24.9237 55.8541 24.6903 55.251 24.7115C54.6483 24.7321 54.0754 25.0048 53.6792 25.4594L52.1363 27.2294C51.385 28.0916 51.4298 29.4005 52.2385 30.2093L52.3916 30.3623ZM53.2407 28.1919L54.7836 26.4219C54.9159 26.2699 55.0998 26.1824 55.3014 26.1756C55.3099 26.1753 55.3184 26.1751 55.3269 26.1751C55.5188 26.1751 55.6983 26.2494 55.8348 26.3859L56.2151 26.7662C56.3576 26.9087 56.4323 27.0982 56.4254 27.2996C56.4185 27.5011 56.3309 27.685 56.1791 27.8174L54.409 29.3602C54.1252 29.6076 53.6939 29.5929 53.4274 29.3265L53.2745 29.1736C53.008 28.9071 52.9933 28.4759 53.2407 28.1919V28.1919Z" fill="white"/>
<path d="M46.3094 26.8508L46.5184 26.9067C46.7055 26.9568 46.8941 26.9809 47.08 26.9809C47.9921 26.9809 48.8419 26.4039 49.15 25.5052L49.9114 23.2842C50.107 22.7137 50.0566 22.0813 49.7732 21.5489C49.4897 21.0167 48.993 20.6219 48.4106 20.4658L47.8911 20.3267C47.3085 20.1705 46.6811 20.2641 46.1694 20.5834C45.6577 20.9026 45.2979 21.4252 45.182 22.017L44.731 24.3213C44.5113 25.4436 45.2047 26.5547 46.3094 26.8508V26.8508ZM46.1686 24.6025L46.6196 22.2983C46.6583 22.1006 46.7738 21.9328 46.9448 21.8262C47.061 21.7537 47.1911 21.7166 47.3238 21.7166C47.3864 21.7166 47.4495 21.7249 47.512 21.7416L48.0315 21.8808C48.2262 21.9329 48.3856 22.0597 48.4803 22.2375C48.5751 22.4154 48.5913 22.6185 48.5259 22.8092L47.7645 25.0302C47.6423 25.3865 47.2616 25.5892 46.8976 25.4919C46.8976 25.4919 46.8976 25.4919 46.8975 25.4919L46.6885 25.4359C46.3245 25.3383 46.0962 24.9723 46.1686 24.6025V24.6025Z" fill="white"/>
</g>
<defs>
<linearGradient id="paint0_linear_350_2855" x1="45" y1="0" x2="45" y2="90" gradientUnits="userSpaceOnUse">
<stop stop-color="#00AF10"/>
<stop offset="1" stop-color="#5CCC66"/>
</linearGradient>
<clipPath id="clip0_350_2855">
<rect width="50" height="50" fill="white" transform="translate(20 20)"/>
</clipPath>
</defs>
</svg>
